<svg xmlns="http://www.w3.org/2000/svg" width="292.025" height="108.236" viewBox="0 0 292.025 108.236">
  <g id="Logo" transform="translate(-282.578 -108.711)">
    <g id="Group_9502" data-name="Group 9502" transform="translate(282.578 108.711)">
      <g id="Group_9476" data-name="Group 9476" transform="translate(215.544 93.605)">
        <g id="Group_9475" data-name="Group 9475">
          <path id="Path_17630" data-name="Path 17630" d="M514.63,207.808a7.12,7.12,0,0,0-1.573-2.306,7.658,7.658,0,0,0-2.331-1.546,7.116,7.116,0,0,0-2.86-.575,6.979,6.979,0,0,0-2.839.575,7.732,7.732,0,0,0-2.306,1.546,7.239,7.239,0,0,0-2.148,5.17,6.939,6.939,0,0,0,.58,2.813,7.546,7.546,0,0,0,1.567,2.353,7.215,7.215,0,0,0,2.306,1.593,6.982,6.982,0,0,0,2.839.58,7.24,7.24,0,0,0,5.192-2.173,7.631,7.631,0,0,0,1.573-2.353,7.117,7.117,0,0,0,.574-2.813A7.253,7.253,0,0,0,514.63,207.808Z" transform="translate(-500.573 -203.38)" fill="#9b7a53"/>
        </g>
      </g>
      <g id="Group_9478" data-name="Group 9478" transform="translate(141.246 21.986)">
        <g id="Group_9477" data-name="Group 9477">
          <path id="Path_17631" data-name="Path 17631" d="M533.623,149.922l-48.784-18.975v24.384h30.132v24.824H475.449V149.5h-.041l.041-.075-20.257-.591-29.035,55.152a6.309,6.309,0,0,0,2.737,8.57l5.1,2.578a6.308,6.308,0,0,0,8.435-2.7l21.619-41.254V197.71h1.738V194.9l7.2,2.209v2.2h1.867v-1.594h.591v-.012h45.643q10.518-1.373,11.551-11.036l-.035-31.344h0A2.8,2.8,0,0,0,533.623,149.922ZM472.991,195.16l-7.2-2.2V186.42l7.2,2.208Zm0-8.48-7.2-2.208v-6.532l7.2,2.208Zm0-8.479-7.2-2.209v-6.532l7.2,2.208Zm0-8.486-7.048-2.156,2.95-5.628,4.1,1.258Zm0-8.48-3.216-.986,3.216-6.137Z" transform="translate(-425.43 -130.947)" fill="#9b7a53"/>
        </g>
      </g>
      <g id="Group_9480" data-name="Group 9480" transform="translate(132.484 30.056)">
        <g id="Group_9479" data-name="Group 9479">
          <path id="Path_17632" data-name="Path 17632" d="M430.626,143.536a7.12,7.12,0,0,0-1.573-2.306,7.668,7.668,0,0,0-2.331-1.546,7.132,7.132,0,0,0-2.861-.574,6.994,6.994,0,0,0-2.839.574,7.733,7.733,0,0,0-2.306,1.546,7.239,7.239,0,0,0-2.148,5.171,6.937,6.937,0,0,0,.58,2.812,7.529,7.529,0,0,0,1.567,2.353,7.219,7.219,0,0,0,2.306,1.594,7,7,0,0,0,2.839.58,7.236,7.236,0,0,0,5.192-2.174,7.631,7.631,0,0,0,1.573-2.353,7.117,7.117,0,0,0,.575-2.812A7.259,7.259,0,0,0,430.626,143.536Z" transform="translate(-416.569 -139.109)" fill="#9b7a53"/>
        </g>
      </g>
      <g id="Group_9482" data-name="Group 9482" transform="translate(134.474 32.047)">
        <g id="Group_9481" data-name="Group 9481">
          <path id="Path_17633" data-name="Path 17633" d="M423.891,151.774a5.114,5.114,0,0,1-2.069-.423,5.289,5.289,0,0,1-1.679-1.161A5.509,5.509,0,0,1,419,148.479a5.27,5.27,0,0,1,1.143-5.815,5.633,5.633,0,0,1,1.675-1.124,5.374,5.374,0,0,1,4.154,0,5.581,5.581,0,0,1,1.695,1.125,5.247,5.247,0,0,1,1.146,1.679v0a5.31,5.31,0,0,1,.418,2.085,5.2,5.2,0,0,1-.418,2.049,5.562,5.562,0,0,1-1.144,1.712,5.262,5.262,0,0,1-3.781,1.583Zm0-10.283a4.733,4.733,0,0,0-1.92.389,5.258,5.258,0,0,0-1.566,1.049,4.9,4.9,0,0,0-1.453,3.5,4.7,4.7,0,0,0,.393,1.9,5.119,5.119,0,0,0,1.064,1.6,4.9,4.9,0,0,0,7,0,5.218,5.218,0,0,0,1.068-1.6,4.894,4.894,0,0,0-1.065-5.406,5.209,5.209,0,0,0-1.583-1.049A4.782,4.782,0,0,0,423.891,141.491Z" transform="translate(-418.581 -141.122)" fill="#bfc0bb"/>
        </g>
      </g>
      <g id="Group_9484" data-name="Group 9484" transform="translate(0 39.72)">
        <g id="Group_9483" data-name="Group 9483">
          <path id="Path_17634" data-name="Path 17634" d="M431.1,180.309v-22.28H414.635v19.945a3.815,3.815,0,0,1-3.815,3.816H397.145a3.815,3.815,0,0,1-3.815-3.816V154.685H357.954q-7.886.461-8.8,9.094v16.53H327.925V152.621a3.74,3.74,0,0,0-3.738-3.738H311.934a29.355,29.355,0,0,0-29.356,29.356v19.614h13.91a8.533,8.533,0,0,0-.811,1.472,7.842,7.842,0,0,0-.632,3.146,7.714,7.714,0,0,0,.632,3.09,8.61,8.61,0,0,0,1.7,2.585,7.625,7.625,0,0,0,2.533,1.75,8.139,8.139,0,0,0,6.288,0,7.631,7.631,0,0,0,2.532-1.75,8.63,8.63,0,0,0,1.7-2.585,7.719,7.719,0,0,0,.638-3.09,7.846,7.846,0,0,0-.638-3.146,8.536,8.536,0,0,0-.812-1.472h17.278c.226.011.458.011.7.011h8.288a7.761,7.761,0,0,0-.817,1.461,7.841,7.841,0,0,0-.632,3.146,7.713,7.713,0,0,0,.632,3.09,8.4,8.4,0,0,0,1.726,2.585,8,8,0,0,0,2.533,1.75,7.669,7.669,0,0,0,3.119.632,7.841,7.841,0,0,0,3.141-.632,8.007,8.007,0,0,0,2.562-1.75,8.617,8.617,0,0,0,1.727-2.585,7.815,7.815,0,0,0,.631-3.09,7.944,7.944,0,0,0-.631-3.146,8.491,8.491,0,0,0-.818-1.461h4.788a11.781,11.781,0,0,0,5.43-1.031,11.187,11.187,0,0,0,4.289-3.431,15.591,15.591,0,0,0,2.661-5.576,21.958,21.958,0,0,0,.545-7.518v-8.126l10.009-.111v8.346a28.806,28.806,0,0,0,.655,7.923,14.616,14.616,0,0,0,2.493,5.49,9.83,9.83,0,0,0,4.057,3.146,12.76,12.76,0,0,0,5.437.887h28.765a11.749,11.749,0,0,0,5.46-1.031,11.038,11.038,0,0,0,4.237-3.431,16.067,16.067,0,0,0,2.631-5.576A22.933,22.933,0,0,0,431.1,180.309ZM314.67,185.026h-5.448v-1.843h5.448Zm0-6.178h-21.8v-7.633a11.989,11.989,0,0,1,11.992-11.992h9.812Z" transform="translate(-282.578 -148.883)" fill="#9b7a53"/>
        </g>
      </g>
      <g id="Group_9487" data-name="Group 9487" transform="translate(51.166 40.99)">
        <g id="Group_9486" data-name="Group 9486">
          <path id="Path_17635" data-name="Path 17635" d="M340.783,177.327h4.33V178.6h-.041a.806.806,0,0,0-1.547,0h-6.857a.806.806,0,0,0-1.547,0h-.041v-1.275h4.33V162.733h-5.083V150.167h.18a2.844,2.844,0,0,1,2.846,2.847V159.6h6.179a3.128,3.128,0,0,1,3.129,3.13h-5.877Z" transform="translate(-334.326 -150.167)" fill="#9b7a53"/>
          <g id="Group_9485" data-name="Group 9485" transform="translate(0.753 27.855)">
            <path id="Path_17636" data-name="Path 17636" d="M336.676,178.918h-1.547a.806.806,0,0,1,1.547,0Z" transform="translate(-335.088 -178.339)" fill="#9b7a53"/>
            <path id="Path_17637" data-name="Path 17637" d="M345.176,178.918h-1.547a.806.806,0,0,1,1.547,0Z" transform="translate(-335.184 -178.339)" fill="#9b7a53"/>
            <path id="Path_17638" data-name="Path 17638" d="M345.216,179.151a.814.814,0,1,1-1.628,0,.622.622,0,0,1,.04-.232.806.806,0,0,1,1.547,0A.645.645,0,0,1,345.216,179.151Z" transform="translate(-335.184 -178.339)" fill="#9b7a53"/>
            <path id="Path_17639" data-name="Path 17639" d="M336.716,179.151a.814.814,0,1,1-1.628,0,.642.642,0,0,1,.041-.232.806.806,0,0,1,1.547,0A.644.644,0,0,1,336.716,179.151Z" transform="translate(-335.088 -178.339)" fill="#9b7a53"/>
          </g>
        </g>
      </g>
      <g id="Group_9492" data-name="Group 9492" transform="translate(130.847 28.582)">
        <g id="Group_9488" data-name="Group 9488" transform="translate(0 0.344)">
          <path id="Path_17640" data-name="Path 17640" d="M415.653,142.252h-.74v-2.04a2.249,2.249,0,0,1,2.245-2.246h2.466v.74h-2.466a1.508,1.508,0,0,0-1.506,1.507Z" transform="translate(-414.913 -137.966)" fill="#9b7a53"/>
        </g>
        <g id="Group_9489" data-name="Group 9489" transform="translate(0.213 12.495)">
          <path id="Path_17641" data-name="Path 17641" d="M419.414,154.967h-2.041a2.249,2.249,0,0,1-2.245-2.246v-2.466h.74v2.466a1.509,1.509,0,0,0,1.506,1.507h2.041Z" transform="translate(-415.128 -150.255)" fill="#9b7a53"/>
        </g>
        <g id="Group_9490" data-name="Group 9490" transform="translate(13.195 12.576)">
          <path id="Path_17642" data-name="Path 17642" d="M430.724,154.623h-2.466v-.74h2.466a1.507,1.507,0,0,0,1.506-1.506v-2.041h.74v2.041A2.248,2.248,0,0,1,430.724,154.623Z" transform="translate(-428.258 -150.337)" fill="#9b7a53"/>
        </g>
        <g id="Group_9491" data-name="Group 9491" transform="translate(13.408)">
          <path id="Path_17643" data-name="Path 17643" d="M432.759,142.329h-.74v-2.466a1.507,1.507,0,0,0-1.506-1.506h-2.041v-.74h2.041a2.248,2.248,0,0,1,2.245,2.245Z" transform="translate(-428.473 -137.618)" fill="#9b7a53"/>
        </g>
      </g>
      <g id="Group_9494" data-name="Group 9494" transform="translate(193.943 74.418)">
        <g id="Group_9493" data-name="Group 9493">
          <path id="Path_17644" data-name="Path 17644" d="M480.723,189.76l-.87,2.646h-1.127l2.862-8.417H482.9l2.874,8.417h-1.163l-.9-2.646Zm2.764-.849-.833-2.422c-.182-.551-.308-1.052-.433-1.536h-.03c-.121.491-.252,1.007-.417,1.521l-.83,2.437Z" transform="translate(-478.726 -183.975)" fill="#bfc0bb"/>
          <path id="Path_17645" data-name="Path 17645" d="M491.2,194.151a1.724,1.724,0,0,0,1.2-.465c.3-.34.422-.818.422-2.267v-5.053h1.093v5.475a3.343,3.343,0,0,1-.721,2.491,2.811,2.811,0,0,1-1.875.684Zm2.845-9.492a.681.681,0,1,1-1.362,0,.67.67,0,0,1,.692-.684A.656.656,0,0,1,494.041,184.659Z" transform="translate(-478.866 -183.975)" fill="#bfc0bb"/>
          <path id="Path_17646" data-name="Path 17646" d="M501.441,188.273c0-.713-.018-1.321-.05-1.881h.963l.042,1.185h.04a1.832,1.832,0,0,1,1.682-1.322,1.293,1.293,0,0,1,.305.031v1.033a1.742,1.742,0,0,0-.374-.033,1.535,1.535,0,0,0-1.47,1.406,2.885,2.885,0,0,0-.044.512v3.227h-1.093Z" transform="translate(-478.981 -184.001)" fill="#bfc0bb"/>
          <path id="Path_17647" data-name="Path 17647" d="M511.306,188.024c0-.631-.021-1.131-.05-1.631h.971l.06.993h.031a2.23,2.23,0,0,1,2-1.13c.83,0,2.128.5,2.128,2.574v3.6H515.35v-3.482c0-.976-.368-1.795-1.4-1.795a1.582,1.582,0,0,0-1.48,1.128,1.707,1.707,0,0,0-.075.509v3.64h-1.093Z" transform="translate(-479.092 -184.001)" fill="#bfc0bb"/>
          <path id="Path_17648" data-name="Path 17648" d="M525.224,184.659a.681.681,0,1,1-1.361,0,.668.668,0,0,1,.683-.684A.658.658,0,0,1,525.224,184.659ZM524,192.406v-6.039h1.093v6.039Z" transform="translate(-479.234 -183.975)" fill="#bfc0bb"/>
        </g>
      </g>
      <g id="Group_9495" data-name="Group 9495" transform="translate(257.407 21.294)">
        <path id="Path_17649" data-name="Path 17649" d="M564.032,130.247h-7.786a4.82,4.82,0,0,0-4.283,2.608,3.373,3.373,0,0,0-.077,2.783l1.2,3.026-10.175,55.748h34.454l-10.175-55.748,1.2-3.01a3.475,3.475,0,0,0-.222-3.07A4.82,4.82,0,0,0,564.032,130.247Z" transform="translate(-542.912 -130.247)" fill="#9b7a53"/>
      </g>
      <g id="Group_9499" data-name="Group 9499" transform="translate(257.242)">
        <g id="Group_9498" data-name="Group 9498">
          <g id="Group_9497" data-name="Group 9497">
            <g id="Group_9496" data-name="Group 9496">
              <path id="Path_17650" data-name="Path 17650" d="M577.528,128.261a.934.934,0,0,1-.708.862.819.819,0,0,1-.319.063c-.434,0-.72-.394-1.022-.811a5.5,5.5,0,0,0-2.758-2.187c-1.325-.508-2.649-.947-3.82-1.342-2.393-.793-4.282-1.422-5.264-2.221a6.471,6.471,0,0,0-3.5-1.119h-.006a6.494,6.494,0,0,0-3.5,1.119c-.982.8-2.871,1.428-5.258,2.221-1.171.395-2.5.834-3.825,1.342a5.5,5.5,0,0,0-2.758,2.187c-.3.417-.588.811-1.022.811a.841.841,0,0,1-.319-.063,1.2,1.2,0,0,1-.582-.433.822.822,0,0,1-.121-.429c-.011-1.1,2.142-2.655,5.619-4.048,4.413-1.77,6.235-2.507,8.724-4.528a4.265,4.265,0,0,1,1.65-.788c-.206-.183-.451-.377-.743-.6-1.176-.908-2.637-2.039-2.746-4.179a5.383,5.383,0,0,1,1.387-4.02,4.34,4.34,0,0,1,3.089-1.387c3.1,0,4.745,1.764,4.745,5.1a1.054,1.054,0,0,1-2.107,0c0-2.77-1.3-3-2.638-3a2.239,2.239,0,0,0-1.564.737,3.183,3.183,0,0,0-.811,2.461c.057,1.171.885,1.809,1.93,2.615a6.805,6.805,0,0,1,2.107,2.227,4.54,4.54,0,0,1,1.793.828c2.49,2.021,4.311,2.752,8.724,4.528C575.382,125.606,577.534,127.159,577.528,128.261Z" transform="translate(-542.745 -108.711)" fill="#9b7a53"/>
            </g>
          </g>
        </g>
      </g>
      <g id="Group_9500" data-name="Group 9500" transform="translate(279.431 16.014)">
        <rect id="Rectangle_6937" data-name="Rectangle 6937" width="7.858" height="0.737" transform="translate(0 5.556) rotate(-45)" fill="#9b7a53"/>
      </g>
      <g id="Group_9501" data-name="Group 9501" transform="translate(263.954 16.014)">
        <rect id="Rectangle_6938" data-name="Rectangle 6938" width="0.737" height="7.858" transform="translate(0 0.521) rotate(-45)" fill="#9b7a53"/>
      </g>
      <circle id="Ellipse_1052" data-name="Ellipse 1052" cx="1.994" cy="1.994" r="1.994" transform="translate(137.807 35.009)" fill="#bfc0bb"/>
    </g>
  </g>
</svg>
